<svg width="18" height="18" viewBox="0 0 18 18" fill="none" xmlns="http://www.w3.org/2000/svg">
<path d="M7.38375 11.2966C6.84315 11.4477 6.43448 11.8287 6.23247 12.0841C6.14707 12.1936 6.10902 12.3734 6.04278 12.4963C6.01349 12.55 5.62015 13.3101 5.26622 13.5373C4.87534 13.7855 4.52251 13.8395 4.33337 14.2295C4.25728 14.3853 4.22552 14.5566 4.24961 14.7206C4.28492 14.9713 4.44916 15.2075 4.78556 15.354C5.34505 15.5981 7.35063 15.3745 8.46879 13.9933C8.79261 13.658 8.93604 13.1809 8.99434 12.7435C9.11533 11.8306 8.27171 11.0491 7.38375 11.2966Z" fill="#32ABF2"/>
<path d="M6.05885 11.3143C6.07527 11.2897 6.09169 11.2662 6.10866 11.236C6.13467 11.1906 6.16149 11.1391 6.18996 11.0841C5.78211 10.8246 5.19497 10.3623 5.16924 10.3421L5.12791 10.31L5.12956 10.3078C5.09123 10.2769 5.05291 10.2482 5.01432 10.2148C4.92837 10.2356 4.8457 10.2599 4.76824 10.289C4.28238 10.4707 3.95555 10.7973 3.72371 11.0466C3.64625 11.1298 3.57973 11.204 3.51896 11.2631C3.18612 11.5845 2.82097 11.7671 2.66358 11.8369C2.63155 11.8571 2.59898 11.8774 2.56586 11.8976C1.98529 12.2524 2.01595 12.8165 2.07972 13.0333C2.1435 13.2501 2.38766 13.8334 3.20719 13.8189C3.84196 13.8077 4.53284 13.4702 4.81231 13.3185C4.81231 13.3185 5.9948 12.5598 6.43495 11.6496C6.43577 11.6494 6.28549 11.5191 6.05885 11.3143Z" fill="#32ABF2"/>
<path d="M4.27744 9.30466C4.12744 9.10183 3.99496 8.90392 3.89943 8.75365C3.86111 8.69288 3.82881 8.6406 3.80335 8.5979C3.69085 8.62746 3.55071 8.67509 3.39742 8.75338C3.02899 8.9417 2.65235 9.04462 2.42844 8.95812C2.20481 8.87135 1.71265 8.65073 1.36311 8.90064C1.01356 9.15055 0.900513 9.60822 1.09376 9.94654C1.25991 10.2375 1.69048 10.6963 2.17689 10.8829C2.17689 10.8829 3.29395 11.4175 4.57854 10.3035C5.68521 9.34407 4.76549 9.29398 4.27744 9.30466Z" fill="#32ABF2"/>
<path d="M9.00008 13.0221C11.9747 13.0221 14.3861 10.6107 14.3861 7.63606C14.3861 4.66142 11.9747 2.25 9.00008 2.25C6.02544 2.25 3.61401 4.66142 3.61401 7.63606C3.61401 10.6107 6.02544 13.0221 9.00008 13.0221Z" fill="#32ABF2"/>
<path d="M10.6161 11.2966C11.1567 11.4477 11.5653 11.8287 11.7673 12.0841C11.8527 12.1936 11.8908 12.3734 11.957 12.4963C11.9863 12.55 12.3797 13.3101 12.7336 13.5373C13.1242 13.7855 13.4773 13.8395 13.6664 14.2295C13.7425 14.3853 13.7743 14.5566 13.7502 14.7206C13.7149 14.9713 13.5506 15.2075 13.2142 15.354C12.6547 15.5981 10.6492 15.3745 9.53102 13.9933C9.2072 13.658 9.06377 13.1809 9.00547 12.7435C8.88475 11.8306 9.72837 11.0491 10.6161 11.2966Z" fill="#32ABF2"/>
<path d="M11.9409 11.3143C11.9244 11.2897 11.908 11.2662 11.891 11.236C11.865 11.1906 11.8382 11.1391 11.8097 11.0841C12.2176 10.8246 12.8047 10.3623 12.8305 10.3421L12.8718 10.31L12.8701 10.3078C12.9085 10.2769 12.9468 10.2482 12.9851 10.2148C13.0711 10.2356 13.1537 10.2599 13.2312 10.289C13.717 10.4707 14.0439 10.7973 14.2757 11.0466C14.3532 11.1298 14.4197 11.204 14.4805 11.2631C14.8133 11.5845 15.1785 11.7671 15.3358 11.8369C15.3679 11.8571 15.4004 11.8774 15.4336 11.8976C16.0141 12.2524 15.9835 12.8165 15.9197 13.0333C15.8559 13.2501 15.6118 13.8334 14.7922 13.8189C14.1577 13.8077 13.4666 13.4702 13.1871 13.3185C13.1871 13.3185 12.0044 12.5598 11.5642 11.6496C11.5639 11.6494 11.7145 11.5191 11.9409 11.3143Z" fill="#32ABF2"/>
<path d="M13.7225 9.30466C13.8725 9.10183 14.005 8.90392 14.1006 8.75365C14.1389 8.69288 14.1712 8.6406 14.1966 8.5979C14.3091 8.62746 14.4493 8.67509 14.6026 8.75338C14.971 8.9417 15.3476 9.04462 15.5715 8.95812C15.7952 8.87135 16.2873 8.65073 16.6369 8.90064C16.9864 9.15055 17.0995 9.60822 16.9062 9.94654C16.7401 10.2375 16.3095 10.6963 15.8231 10.8829C15.8231 10.8829 14.706 11.4175 13.4214 10.3035C12.3148 9.34407 13.2345 9.29398 13.7225 9.30466Z" fill="#32ABF2"/>
<path d="M7.14352 7.98636C7.40536 7.98636 7.61761 7.71626 7.61761 7.38307C7.61761 7.04989 7.40536 6.77979 7.14352 6.77979C6.88169 6.77979 6.66943 7.04989 6.66943 7.38307C6.66943 7.71626 6.88169 7.98636 7.14352 7.98636Z" fill="#34056F"/>
<path d="M7.33301 7.125C7.33301 7.24352 7.23693 7.3396 7.11841 7.3396C6.99988 7.3396 6.90381 7.24352 6.90381 7.125C6.90381 7.00648 6.99988 6.9104 7.11841 6.9104C7.23693 6.91013 7.33301 7.0062 7.33301 7.125Z" fill="#F9F9F9"/>
<path d="M10.8564 7.98636C11.1182 7.98636 11.3305 7.71626 11.3305 7.38307C11.3305 7.04989 11.1182 6.77979 10.8564 6.77979C10.5946 6.77979 10.3823 7.04989 10.3823 7.38307C10.3823 7.71626 10.5946 7.98636 10.8564 7.98636Z" fill="#34056F"/>
<path d="M11.0461 7.125C11.0461 7.24352 10.9501 7.3396 10.8315 7.3396C10.713 7.3396 10.6169 7.24352 10.6169 7.125C10.6169 7.00648 10.713 6.9104 10.8315 6.9104C10.9501 6.91013 11.0461 7.0062 11.0461 7.125Z" fill="#F9F9F9"/>
<path d="M9.87147 9.23932C9.8263 9.78348 9.64318 10.4768 8.99993 10.4768C8.68241 10.4768 8.47712 10.3079 8.34546 10.0714C8.50531 9.72928 8.92849 9.11998 9.87147 9.23932Z" fill="#EB5A55"/>
<path d="M9.8715 9.23924C8.92825 9.11989 8.50535 9.7292 8.34549 10.0714C8.03619 9.51926 8.12761 8.5979 8.12761 8.5979C8.38792 8.70958 8.99997 8.68686 8.99997 8.68686C8.99997 8.68686 9.61119 8.70958 9.87232 8.5979C9.87232 8.5979 9.90107 8.88778 9.8715 9.23924Z" fill="#79292A"/>
</svg>
