<svg width="32" height="32" viewBox="0 0 32 32" fill="none" xmlns="http://www.w3.org/2000/svg">
<path d="M13.1142 20.0642C12.1541 20.3326 11.4282 21.0093 11.0694 21.4629C10.9177 21.6574 10.8502 21.9768 10.7325 22.1951C10.6805 22.2904 9.98187 23.6405 9.35325 24.044C8.659 24.4849 8.03233 24.5807 7.69639 25.2735C7.56124 25.5501 7.50484 25.8545 7.54762 26.1457C7.61034 26.591 7.90204 27.0106 8.49954 27.2707C9.49327 27.7044 13.0554 27.3072 15.0414 24.8539C15.6166 24.2584 15.8713 23.411 15.9749 22.6341C16.1897 21.0127 14.6914 19.6247 13.1142 20.0642Z" fill="#32ABF2"/>
<path d="M10.7613 20.0958C10.7905 20.052 10.8197 20.0102 10.8498 19.9567C10.896 19.876 10.9437 19.7846 10.9942 19.6869C10.2698 19.226 9.22699 18.4049 9.18129 18.3689L9.10788 18.312L9.1108 18.3081C9.04273 18.2532 8.97467 18.2021 8.90612 18.1428C8.75346 18.1798 8.60664 18.223 8.46905 18.2746C7.60611 18.5974 7.02562 19.1774 6.61383 19.6203C6.47625 19.7681 6.35811 19.8998 6.25018 20.0048C5.659 20.5756 5.01045 20.8999 4.73091 21.0239C4.67402 21.0598 4.61617 21.0958 4.55734 21.1318C3.52618 21.7619 3.58063 22.7639 3.69391 23.1489C3.80719 23.5339 4.24085 24.57 5.69644 24.5442C6.82386 24.5243 8.05095 23.9248 8.54733 23.6555C8.54733 23.6555 10.6476 22.3078 11.4293 20.6913C11.4308 20.6908 11.1639 20.4594 10.7613 20.0958Z" fill="#32ABF2"/>
<path d="M7.59728 16.5263C7.33086 16.166 7.09555 15.8145 6.92588 15.5476C6.85782 15.4397 6.80045 15.3468 6.75524 15.271C6.55542 15.3235 6.3065 15.4081 6.03425 15.5471C5.37986 15.8816 4.7109 16.0644 4.31321 15.9108C3.91601 15.7567 3.04188 15.3648 2.42104 15.8087C1.80021 16.2526 1.59942 17.0654 1.94266 17.6663C2.23776 18.1831 3.0025 18.998 3.86643 19.3295C3.86643 19.3295 5.85048 20.279 8.13206 18.3003C10.0976 16.5963 8.46412 16.5073 7.59728 16.5263Z" fill="#32ABF2"/>
<path d="M15.985 23.129C21.2684 23.129 25.5514 18.846 25.5514 13.5627C25.5514 8.27933 21.2684 3.99634 15.985 3.99634C10.7017 3.99634 6.4187 8.27933 6.4187 13.5627C6.4187 18.846 10.7017 23.129 15.985 23.129Z" fill="#32ABF2"/>
<path d="M18.8554 20.0642C19.8156 20.3326 20.5414 21.0093 20.9002 21.4629C21.0519 21.6574 21.1195 21.9768 21.2371 22.1951C21.2892 22.2904 21.9878 23.6405 22.6164 24.044C23.3102 24.4849 23.9373 24.5807 24.2733 25.2735C24.4084 25.5501 24.4648 25.8545 24.422 26.1457C24.3593 26.591 24.0676 27.0106 23.4701 27.2707C22.4764 27.7044 18.9142 27.3072 16.9282 24.8539C16.3531 24.2584 16.0983 23.411 15.9948 22.6341C15.7804 21.0127 17.2788 19.6247 18.8554 20.0642Z" fill="#32ABF2"/>
<path d="M21.2085 20.0958C21.1793 20.052 21.1502 20.0102 21.12 19.9567C21.0738 19.876 21.0262 19.7846 20.9756 19.6869C21.7 19.226 22.7429 18.4049 22.7886 18.3689L22.862 18.312L22.8591 18.3081C22.9271 18.2532 22.9952 18.2021 23.0632 18.1428C23.2159 18.1798 23.3627 18.223 23.5003 18.2746C24.3633 18.5974 24.9437 19.1774 25.3555 19.6203C25.4931 19.7681 25.6113 19.8998 25.7192 20.0048C26.3104 20.5756 26.9589 20.8999 27.2385 21.0239C27.2953 21.0598 27.3532 21.0958 27.412 21.1318C28.4432 21.7619 28.3887 22.7639 28.2755 23.1489C28.1622 23.5339 27.7285 24.57 26.2729 24.5442C25.146 24.5243 23.9184 23.9248 23.422 23.6555C23.422 23.6555 21.3213 22.3078 20.5396 20.6913C20.5391 20.6908 20.8065 20.4594 21.2085 20.0958Z" fill="#32ABF2"/>
<path d="M24.373 16.5263C24.6394 16.166 24.8747 15.8145 25.0443 15.5476C25.1124 15.4397 25.1698 15.3468 25.215 15.271C25.4148 15.3235 25.6637 15.4081 25.936 15.5471C26.5904 15.8816 27.2593 16.0644 27.657 15.9108C28.0542 15.7567 28.9283 15.3648 29.5492 15.8087C30.17 16.2526 30.3708 17.0654 30.0276 17.6663C29.7325 18.1831 28.9677 18.998 28.1038 19.3295C28.1038 19.3295 26.1198 20.279 23.8382 18.3003C21.8726 16.5963 23.5061 16.5073 24.373 16.5263Z" fill="#32ABF2"/>
<path d="M12.688 14.1849C13.153 14.1849 13.53 13.7052 13.53 13.1134C13.53 12.5216 13.153 12.0419 12.688 12.0419C12.2229 12.0419 11.8459 12.5216 11.8459 13.1134C11.8459 13.7052 12.2229 14.1849 12.688 14.1849Z" fill="#34056F"/>
<path d="M13.0244 12.655C13.0244 12.8655 12.8537 13.0361 12.6432 13.0361C12.4327 13.0361 12.2621 12.8655 12.2621 12.655C12.2621 12.4444 12.4327 12.2738 12.6432 12.2738C12.8537 12.2733 13.0244 12.444 13.0244 12.655Z" fill="#F9F9F9"/>
<path d="M19.2824 14.1849C19.7474 14.1849 20.1244 13.7052 20.1244 13.1134C20.1244 12.5216 19.7474 12.0419 19.2824 12.0419C18.8173 12.0419 18.4403 12.5216 18.4403 13.1134C18.4403 13.7052 18.8173 14.1849 19.2824 14.1849Z" fill="#34056F"/>
<path d="M19.6194 12.655C19.6194 12.8655 19.4487 13.0361 19.2382 13.0361C19.0277 13.0361 18.8571 12.8655 18.8571 12.655C18.8571 12.4444 19.0277 12.2738 19.2382 12.2738C19.4487 12.2733 19.6194 12.444 19.6194 12.655Z" fill="#F9F9F9"/>
<path d="M17.5331 16.4102C17.4529 17.3767 17.1277 18.6081 15.9852 18.6081C15.4212 18.6081 15.0566 18.3082 14.8228 17.8881C15.1067 17.2804 15.8583 16.1982 17.5331 16.4102Z" fill="#EB5A55"/>
<path d="M17.533 16.4101C15.8577 16.1981 15.1065 17.2803 14.8226 17.888C14.2732 16.9074 14.4356 15.271 14.4356 15.271C14.898 15.4694 15.985 15.429 15.985 15.429C15.985 15.429 17.0707 15.4694 17.5345 15.271C17.5345 15.271 17.5855 15.7859 17.533 16.4101Z" fill="#79292A"/>
</svg>
