<svg width="17" height="16" viewBox="0 0 17 16" fill="none" xmlns="http://www.w3.org/2000/svg">
<g clip-path="url(#clip0_5501_697)">
<path d="M10.5001 4.66663H12.5001C12.9378 4.66663 13.3713 4.75285 13.7757 4.92036C14.1801 5.08788 14.5476 5.33341 14.8571 5.64294C15.1666 5.95247 15.4122 6.31993 15.5797 6.72435C15.7472 7.12877 15.8334 7.56222 15.8334 7.99996C15.8334 8.4377 15.7472 8.87115 15.5797 9.27557C15.4122 9.67999 15.1666 10.0475 14.8571 10.357C14.5476 10.6665 14.1801 10.912 13.7757 11.0796C13.3713 11.2471 12.9378 11.3333 12.5001 11.3333H10.5001M6.50008 11.3333H4.50008C4.06234 11.3333 3.62889 11.2471 3.22447 11.0796C2.82005 10.912 2.45259 10.6665 2.14306 10.357C1.51794 9.73186 1.16675 8.88401 1.16675 7.99996C1.16675 7.1159 1.51794 6.26806 2.14306 5.64294C2.76818 5.01782 3.61603 4.66663 4.50008 4.66663H6.50008" stroke="#6B7B93" stroke-width="1.25" stroke-linecap="round" stroke-linejoin="round"/>
<path d="M5.83325 8H11.1666" stroke="#6B7B93" stroke-width="1.25" stroke-linecap="round" stroke-linejoin="round"/>
</g>
<defs>
<clipPath id="clip0_5501_697">
<rect x="0.5" width="16" height="16" rx="8" fill="white"/>
</clipPath>
</defs>
</svg>
